<?xml version="1.0" encoding="UTF-8" standalone="no"?>
<!-- Generator: Adobe Illustrator 16.0.0, SVG Export Plug-In . SVG Version: 6.00 Build 0)  -->

<svg
   xmlns:dc="http://purl.org/dc/elements/1.1/"
   xmlns:cc="http://creativecommons.org/ns#"
   xmlns:rdf="http://www.w3.org/1999/02/22-rdf-syntax-ns#"
   xmlns:svg="http://www.w3.org/2000/svg"
   xmlns="http://www.w3.org/2000/svg"
   xmlns:sodipodi="http://sodipodi.sourceforge.net/DTD/sodipodi-0.dtd"
   xmlns:inkscape="http://www.inkscape.org/namespaces/inkscape"
   version="1.1"
   id="Capa_1"
   x="0px"
   y="0px"
   width="45.16px"
   height="45.16px"
   viewBox="0 0 45.16 45.16"
   style="enable-background:new 0 0 45.16 45.16;"
   xml:space="preserve"
   sodipodi:docname="sun-silver.svg"
   inkscape:version="0.92.3 (2405546, 2018-03-11)"><metadata
   id="metadata4000"><rdf:RDF><cc:Work
       rdf:about=""><dc:format>image/svg+xml</dc:format><dc:type
         rdf:resource="http://purl.org/dc/dcmitype/StillImage" /><dc:title></dc:title></cc:Work></rdf:RDF></metadata><defs
   id="defs3998" /><sodipodi:namedview
   pagecolor="#ffffff"
   bordercolor="#666666"
   borderopacity="1"
   objecttolerance="10"
   gridtolerance="10"
   guidetolerance="10"
   inkscape:pageopacity="0"
   inkscape:pageshadow="2"
   inkscape:window-width="1920"
   inkscape:window-height="1003"
   id="namedview3996"
   showgrid="false"
   inkscape:zoom="17.404954"
   inkscape:cx="22.58"
   inkscape:cy="22.58"
   inkscape:window-x="-9"
   inkscape:window-y="-9"
   inkscape:window-maximized="1"
   inkscape:current-layer="Capa_1" />
<g
   id="g3963"
   style="fill:#bfbdc1;fill-opacity:1">
	<g
   id="g3961"
   style="fill:#bfbdc1;fill-opacity:1">
		<path
   d="M22.58,11.269c-6.237,0-11.311,5.075-11.311,11.312s5.074,11.312,11.311,11.312c6.236,0,11.311-5.074,11.311-11.312    S28.816,11.269,22.58,11.269z"
   id="path3925"
   style="fill:#bfbdc1;fill-opacity:1" />
		<g
   id="g3959"
   style="fill:#bfbdc1;fill-opacity:1">
			<g
   id="g3929"
   style="fill:#bfbdc1;fill-opacity:1">
				<path
   d="M22.58,7.944c-1.219,0-2.207-0.988-2.207-2.206V2.207C20.373,0.988,21.361,0,22.58,0c1.219,0,2.207,0.988,2.207,2.207      v3.531C24.787,6.956,23.798,7.944,22.58,7.944z"
   id="path3927"
   style="fill:#bfbdc1;fill-opacity:1" />
			</g>
			<g
   id="g3933"
   style="fill:#bfbdc1;fill-opacity:1">
				<path
   d="M22.58,37.215c-1.219,0-2.207,0.988-2.207,2.207v3.53c0,1.22,0.988,2.208,2.207,2.208c1.219,0,2.207-0.988,2.207-2.208      v-3.53C24.787,38.203,23.798,37.215,22.58,37.215z"
   id="path3931"
   style="fill:#bfbdc1;fill-opacity:1" />
			</g>
			<g
   id="g3937"
   style="fill:#bfbdc1;fill-opacity:1">
				<path
   d="M32.928,12.231c-0.861-0.862-0.861-2.259,0-3.121l2.497-2.497c0.861-0.861,2.259-0.861,3.121,0      c0.862,0.862,0.862,2.26,0,3.121l-2.497,2.497C35.188,13.093,33.791,13.093,32.928,12.231z"
   id="path3935"
   style="fill:#bfbdc1;fill-opacity:1" />
			</g>
			<g
   id="g3941"
   style="fill:#bfbdc1;fill-opacity:1">
				<path
   d="M12.231,32.93c-0.862-0.863-2.259-0.863-3.121,0l-2.497,2.496c-0.861,0.861-0.862,2.26,0,3.121      c0.862,0.861,2.26,0.861,3.121,0l2.497-2.498C13.093,35.188,13.093,33.79,12.231,32.93z"
   id="path3939"
   style="fill:#bfbdc1;fill-opacity:1" />
			</g>
			<g
   id="g3945"
   style="fill:#bfbdc1;fill-opacity:1">
				<path
   d="M37.215,22.58c0-1.219,0.988-2.207,2.207-2.207h3.531c1.219,0,2.207,0.988,2.207,2.207c0,1.219-0.988,2.206-2.207,2.206      h-3.531C38.203,24.786,37.215,23.799,37.215,22.58z"
   id="path3943"
   style="fill:#bfbdc1;fill-opacity:1" />
			</g>
			<g
   id="g3949"
   style="fill:#bfbdc1;fill-opacity:1">
				<path
   d="M7.944,22.58c0-1.219-0.988-2.207-2.207-2.207h-3.53C0.988,20.373,0,21.361,0,22.58c0,1.219,0.988,2.206,2.207,2.206      h3.531C6.956,24.786,7.944,23.799,7.944,22.58z"
   id="path3947"
   style="fill:#bfbdc1;fill-opacity:1" />
			</g>
			<g
   id="g3953"
   style="fill:#bfbdc1;fill-opacity:1">
				<path
   d="M32.928,32.93c0.862-0.861,2.26-0.861,3.121,0l2.497,2.497c0.862,0.86,0.862,2.259,0,3.12s-2.259,0.861-3.121,0      l-2.497-2.497C32.066,35.188,32.066,33.791,32.928,32.93z"
   id="path3951"
   style="fill:#bfbdc1;fill-opacity:1" />
			</g>
			<g
   id="g3957"
   style="fill:#bfbdc1;fill-opacity:1">
				<path
   d="M12.231,12.231c0.862-0.862,0.862-2.259,0-3.121L9.734,6.614c-0.862-0.862-2.259-0.862-3.121,0      c-0.862,0.861-0.862,2.259,0,3.12l2.497,2.497C9.972,13.094,11.369,13.094,12.231,12.231z"
   id="path3955"
   style="fill:#bfbdc1;fill-opacity:1" />
			</g>
		</g>
	</g>
</g>
<g
   id="g3965">
</g>
<g
   id="g3967">
</g>
<g
   id="g3969">
</g>
<g
   id="g3971">
</g>
<g
   id="g3973">
</g>
<g
   id="g3975">
</g>
<g
   id="g3977">
</g>
<g
   id="g3979">
</g>
<g
   id="g3981">
</g>
<g
   id="g3983">
</g>
<g
   id="g3985">
</g>
<g
   id="g3987">
</g>
<g
   id="g3989">
</g>
<g
   id="g3991">
</g>
<g
   id="g3993">
</g>
</svg>